# xmcd
#
# Track frame offsets:
#	150
#	14695
#	30287
#	46832
#	68120
#	87670
#	101318
#	125495
#	137760
#	149440
#	164692
#	184178
#	193598
#	210996
#
# Disc length: 2993 seconds
#
# Revision: 1
# Processed by: cddbd v1.5PL3 Copyright (c) Steve Scherf et al.
# Submitted via: CDex 1.50Beta5
#
DISCID=c50baf0e
DTITLE=Phantom Planet - The Guest
DYEAR=2002
DGENRE=
TTITLE0=California
TTITLE1=Always On My Mind
TTITLE2=Lonely Day
TTITLE3=One Ray Of Sunlight
TTITLE4=Anthem
TTITLE5=In Our Darkest Hour
TTITLE6=Turn Smile Shift Repeat
TTITLE7=Hey Now Girl
TTITLE8=Nobody's Fault
TTITLE9=All Over Again
TTITLE10=Wishing Well
TTITLE11=Something IS Wrong (Bonus Track)
TTITLE12=Wishing Well (Live At The House Of Blues)
TTITLE13=DO THE PANIC(Demo)
EXTD=
EXTT0=
EXTT1=
EXTT2=
EXTT3=
EXTT4=
EXTT5=
EXTT6=
EXTT7=
EXTT8=
EXTT9=
EXTT10=
EXTT11=
EXTT12=
EXTT13=
PLAYORDER=
